<svg width="63" height="25" viewBox="0 0 63 25" fill="none" xmlns="http://www.w3.org/2000/svg">
<path d="M8.92163 20.0858C8.92163 19.521 8.71886 19.0577 8.31333 18.6963C7.9078 18.3121 7.37837 17.9732 6.72501 17.6795C6.0942 17.3631 5.41832 17.047 4.69737 16.7306C3.99897 16.4142 3.32309 16.0527 2.66973 15.6461C2.03892 15.2169 1.52073 14.6857 1.1152 14.0532C0.709674 13.3979 0.506911 12.6072 0.506911 11.6808C0.506911 11.6808 0.597019 11.6808 0.777263 11.6808C0.980027 11.6808 1.22786 11.6808 1.52073 11.6808C1.83615 11.6808 2.1403 11.6808 2.43317 11.6808C2.72604 11.6808 2.97388 11.6808 3.17664 11.6808C3.3794 11.6808 3.48079 11.6808 3.48079 11.6808C3.48079 12.2456 3.68355 12.72 4.08908 13.1042C4.49461 13.4656 5.01279 13.7934 5.6436 14.0871C6.29696 14.3807 6.98409 14.6971 7.70504 15.036C8.42599 15.3524 9.10187 15.7252 9.73268 16.1544C10.3635 16.5836 10.8817 17.1148 11.2872 17.7473C11.7153 18.3573 11.9293 19.1368 11.9293 20.0858C11.9293 20.0858 11.8279 20.0858 11.6251 20.0858C11.4224 20.0858 11.1633 20.0858 10.8479 20.0858C10.555 20.0858 10.2621 20.0858 9.96924 20.0858C9.67637 20.0858 9.42854 20.0858 9.22577 20.0858C9.02301 20.0858 8.92163 20.0858 8.92163 20.0858ZM6.04913 25V22.3226C6.88271 22.3226 7.56986 22.1193 8.11057 21.7126C8.65127 21.2834 8.92163 20.7411 8.92163 20.0858H11.9293C11.9293 21.0347 11.6702 21.882 11.152 22.6276C10.6564 23.3732 9.96924 23.9608 9.0906 24.39C8.21195 24.7967 7.19813 25 6.04913 25ZM0.506911 11.6808C0.506911 10.7543 0.732195 9.92984 1.18279 9.20674C1.65591 8.46114 2.30927 7.88499 3.14284 7.47829C3.97642 7.0491 4.90014 6.83436 5.91396 6.83436V9.51176C5.21556 9.51176 4.62978 9.71511 4.15667 10.1218C3.70607 10.5285 3.48079 11.0482 3.48079 11.6808H0.506911ZM2.8387 19.3741C2.95135 20.3683 3.31182 21.1139 3.92011 21.6109C4.5284 22.0854 5.23807 22.3226 6.04913 22.3226V25C5.01279 25 4.05528 24.7853 3.17664 24.3561C2.29799 23.9269 1.57705 23.328 1.01382 22.5598C0.473116 21.7917 0.135176 20.9217 0 19.9502L2.8387 19.3741ZM9.0906 12.4603C8.97794 11.4436 8.61748 10.698 8.00919 10.2235C7.42341 9.749 6.72501 9.51176 5.91396 9.51176V6.83436C6.97284 6.83436 7.93033 7.0491 8.78645 7.47829C9.64257 7.90749 10.3522 8.50641 10.9155 9.27452C11.4787 10.0201 11.8279 10.8899 11.9631 11.8841L9.0906 12.4603ZM15.0687 24.4916V7.37662H18.144V24.4916H15.0687ZM23.889 24.4916V12.8331H26.9642V24.4916H23.889ZM16.7584 12.9009C16.7584 11.7486 16.9724 10.7205 17.4005 9.81678C17.8511 8.89034 18.4595 8.1675 19.2254 7.64775C19.9913 7.128 20.8475 6.86825 21.7937 6.86825L21.0165 9.61343C20.2054 9.61343 19.5182 9.91846 18.955 10.5285C18.4143 11.1385 18.144 11.9294 18.144 12.9009H16.7584ZM23.889 12.8331C23.889 11.8841 23.6186 11.116 23.0779 10.5285C22.5372 9.91846 21.85 9.61343 21.0165 9.61343L21.7937 6.86825C22.7851 6.86825 23.6637 7.128 24.4297 7.64775C25.2183 8.1675 25.8377 8.87922 26.2883 9.78289C26.739 10.6641 26.9642 11.6808 26.9642 12.8331H23.889ZM32.6754 24.4916V12.8331H35.7507V24.4916H32.6754ZM25.5787 12.9009C25.5787 11.7486 25.7928 10.7205 26.2207 9.81678C26.6714 8.89034 27.2684 8.1675 28.0118 7.64775C28.7777 7.128 29.6339 6.86825 30.5802 6.86825L29.8029 9.61343C28.9919 9.61343 28.316 9.91846 27.7753 10.5285C27.2346 11.1385 26.9642 11.9294 26.9642 12.9009H25.5787ZM32.6754 12.8331C32.6754 11.8841 32.405 11.116 31.8643 10.5285C31.3461 9.91846 30.6591 9.61343 29.8029 9.61343L30.5802 6.86825C31.5716 6.86825 32.4502 7.128 33.2161 7.64775C34.0047 8.1675 34.6241 8.87922 35.0748 9.78289C35.5254 10.6641 35.7507 11.6808 35.7507 12.8331H32.6754ZM39.1932 24.4916V7.37662H42.2684V24.4916H39.1932ZM40.8829 13.2059C40.8829 12.0311 41.0856 10.9691 41.4912 10.0201C41.9191 9.07118 42.4936 8.33696 43.2146 7.81721C43.9357 7.27495 44.7467 7.00382 45.6478 7.00382L44.9719 9.88456C44.1833 9.88456 43.5301 10.201 43.0119 10.8335C42.5163 11.4436 42.2684 12.2344 42.2684 13.2059H40.8829ZM47.1348 10.7996C46.7968 10.506 46.4364 10.2799 46.0533 10.1218C45.693 9.96373 45.3323 9.88456 44.9719 9.88456L45.6478 7.00382C46.1661 7.00382 46.6503 7.09411 47.101 7.27495C47.5516 7.43302 48.002 7.72692 48.4527 8.15612L47.1348 10.7996ZM59.7896 24.4916L53.7404 15.036L56.6805 14.0532L63 24.4916H59.7896ZM53.8418 18.3912L51.4762 16.7984L58.8771 7.37662H62.5945L53.8418 18.3912ZM51.2059 24.4916V0.0900269H54.2811V24.4916H51.2059Z" fill="#3FC1C9"/>
<path d="M62.5771 0H15.0542V3.17729H62.5771V0Z" fill="#3FC1C9"/>
<path d="M11.886 0H0.533325V3.17729H11.886V0Z" fill="#3FC1C9"/>
</svg>
