<svg width="32" height="32" viewBox="0 0 32 32" fill="none" xmlns="http://www.w3.org/2000/svg">
<path d="M24 10.6667H13.3334C11.8606 10.6667 10.6667 11.8606 10.6667 13.3334V24C10.6667 25.4728 11.8606 26.6667 13.3334 26.6667H24C25.4728 26.6667 26.6667 25.4728 26.6667 24V13.3334C26.6667 11.8606 25.4728 10.6667 24 10.6667Z" stroke="black" stroke-width="2" stroke-linecap="round" stroke-linejoin="round"/>
<path d="M21.3333 10.6666V7.99998C21.3333 7.29274 21.0524 6.61446 20.5523 6.11436C20.0522 5.61426 19.3739 5.33331 18.6666 5.33331H7.99998C7.29274 5.33331 6.61446 5.61426 6.11436 6.11436C5.61426 6.61446 5.33331 7.29274 5.33331 7.99998V18.6666C5.33331 19.3739 5.61426 20.0522 6.11436 20.5523C6.61446 21.0524 7.29274 21.3333 7.99998 21.3333H10.6666" stroke="black" stroke-width="2" stroke-linecap="round" stroke-linejoin="round"/>
</svg>
