<svg width="41" height="41" viewBox="0 0 41 41" fill="none" xmlns="http://www.w3.org/2000/svg">
<path d="M11.9583 34.1667C14.7888 34.1667 17.0833 31.8721 17.0833 29.0417C17.0833 26.2112 14.7888 23.9167 11.9583 23.9167C9.12788 23.9167 6.83334 26.2112 6.83334 29.0417C6.83334 31.8721 9.12788 34.1667 11.9583 34.1667Z" stroke="black" stroke-width="2" stroke-linecap="round" stroke-linejoin="round"/>
<path d="M29.0417 34.1667C31.8721 34.1667 34.1667 31.8721 34.1667 29.0417C34.1667 26.2112 31.8721 23.9167 29.0417 23.9167C26.2112 23.9167 23.9167 26.2112 23.9167 29.0417C23.9167 31.8721 26.2112 34.1667 29.0417 34.1667Z" stroke="black" stroke-width="2" stroke-linecap="round" stroke-linejoin="round"/>
<path d="M15.6313 25.3688L30.75 6.83333" stroke="black" stroke-width="2" stroke-linecap="round" stroke-linejoin="round"/>
<path d="M10.25 6.83333L25.3688 25.3688" stroke="black" stroke-width="2" stroke-linecap="round" stroke-linejoin="round"/>
</svg>
