<svg width="35" height="35" viewBox="0 0 35 35" fill="none" xmlns="http://www.w3.org/2000/svg">
<path d="M21.875 21.875C24.2912 21.875 26.25 19.9162 26.25 17.5C26.25 15.0838 24.2912 13.125 21.875 13.125C19.4588 13.125 17.5 15.0838 17.5 17.5C17.5 19.9162 19.4588 21.875 21.875 21.875Z" stroke="#3FC1C9" stroke-width="2" stroke-linecap="round" stroke-linejoin="round"/>
<path d="M21.875 4.375H13.125C10.7088 4.375 8.75 6.33375 8.75 8.75C8.75 11.1662 10.7088 13.125 13.125 13.125H21.875C24.2912 13.125 26.25 11.1662 26.25 8.75C26.25 6.33375 24.2912 4.375 21.875 4.375Z" stroke="#3FC1C9" stroke-width="2" stroke-linecap="round" stroke-linejoin="round"/>
<path d="M13.125 13.125C11.9647 13.125 10.8519 13.5859 10.0314 14.4064C9.21094 15.2269 8.75 16.3397 8.75 17.5C8.75 18.6603 9.21094 19.7731 10.0314 20.5936C10.8519 21.4141 11.9647 21.875 13.125 21.875H17.5M13.125 21.875C12.2597 21.875 11.4138 22.1316 10.6944 22.6123C9.97492 23.0931 9.41416 23.7763 9.08303 24.5758C8.7519 25.3752 8.66526 26.2549 8.83407 27.1035C9.00288 27.9522 9.41955 28.7317 10.0314 29.3436C10.6433 29.9555 11.4228 30.3721 12.2715 30.5409C13.1201 30.7097 13.9998 30.6231 14.7992 30.292C15.5987 29.9608 16.2819 29.4001 16.7627 28.6806C17.2434 27.9612 17.5 27.1153 17.5 26.25V4.375" stroke="#3FC1C9" stroke-width="2" stroke-linecap="round" stroke-linejoin="round"/>
</svg>
