<svg width="35" height="35" viewBox="0 0 35 35" fill="none" xmlns="http://www.w3.org/2000/svg">
<path d="M13.125 27.7083C6.85417 29.75 6.85417 24.0625 4.375 23.3333M21.875 30.625V25.5208C21.875 24.0625 22.0208 23.4792 21.1458 22.6042C25.2292 22.1667 29.1667 20.5625 29.1667 13.8542C29.1649 12.1114 28.485 10.4377 27.2708 9.18749C27.8403 7.67369 27.7878 5.99611 27.125 4.52082C27.125 4.52082 25.5208 4.08332 22.0208 6.41666C19.0564 5.6446 15.9436 5.6446 12.9792 6.41666C9.47917 4.08332 7.875 4.52082 7.875 4.52082C7.21216 5.99611 7.15974 7.67369 7.72917 9.18749C6.51504 10.4377 5.83511 12.1114 5.83333 13.8542C5.83333 20.5625 9.77083 22.1667 13.8542 22.6042C12.9792 23.4792 12.9792 24.3542 13.125 25.5208V30.625" stroke="#3FC1C9" stroke-width="2" stroke-linecap="round" stroke-linejoin="round"/>
</svg>
